<?xml version="1.0" standalone="no"?>
<!DOCTYPE svg PUBLIC "-//W3C//DTD SVG 1.1//EN" "http://www.w3.org/Graphics/SVG/1.1/DTD/svg11.dtd">
<svg width="100%" height="100%" viewBox="0 0 1459 475" version="1.1" xmlns="http://www.w3.org/2000/svg" xmlns:xlink="http://www.w3.org/1999/xlink" xml:space="preserve" style="fill-rule:evenodd;clip-rule:evenodd;stroke-linejoin:round;stroke-miterlimit:1.41421;">
    <g transform="matrix(4.16667,0,0,4.16667,0,0)">
        <path d="M349.232,81.308C349.232,84.668 346.509,87.391 343.149,87.391C339.789,87.391 337.065,84.668 337.065,81.308C337.065,77.948 339.789,75.224 343.149,75.224C346.509,75.224 349.232,77.948 349.232,81.308Z" style="fill:rgb(237,28,36);fill-rule:nonzero;"/>
        <path d="M45.396,57.138C45.396,48.685 39.117,41.32 30.426,41.32C25.478,41.32 20.524,43.01 16.781,47.962L16.781,66.43C20.524,71.502 25.478,73.194 30.426,73.194C39.117,73.194 45.396,65.707 45.396,57.138ZM61.936,57.138C61.936,74.158 49.139,87.317 33.203,87.317C26.684,87.317 21.249,85.626 16.781,82.732L16.781,86.111L0,86.111L0,9.925L16.781,0.391L16.781,31.66C21.249,28.764 26.684,27.074 33.203,27.074C49.139,27.074 61.936,40.355 61.936,57.138Z" style="fill:white;fill-rule:nonzero;"/>
        <rect x="71.609" y="28.281" width="16.782" height="57.83" style="fill:white;fill-rule:nonzero;"/>
        <path d="M142.966,66.43L142.966,47.962C139.224,42.889 134.274,41.2 129.325,41.2C120.513,41.2 114.352,48.685 114.352,57.254C114.352,65.707 120.513,73.072 129.325,73.072C134.274,73.072 139.224,71.382 142.966,66.43ZM159.748,28.281L159.748,86.111L142.966,86.111L142.966,82.732C138.501,85.626 133.068,87.317 126.548,87.317C110.609,87.317 97.69,74.038 97.69,57.254C97.69,40.234 110.609,27.074 126.548,27.074C133.068,27.074 138.501,28.764 142.966,31.66L142.966,28.281L159.748,28.281Z" style="fill:white;fill-rule:nonzero;"/>
        <path d="M267.813,54.359L267.813,86.111L251.031,86.111L251.031,55.81C251.031,46.631 246.562,41.683 238.719,41.683C235.215,41.683 231.353,43.25 227.851,48.082C228.094,50.133 228.336,52.184 228.336,54.359L228.336,86.111L211.552,86.111L211.552,55.81C211.552,46.631 207.083,41.683 199.116,41.683C195.859,41.683 192.235,43.614 188.852,48.199L188.852,86.111L172.071,86.111L172.071,28.281L188.852,28.281L188.852,31.781C192.474,28.402 196.337,26.467 203.101,26.467C210.466,26.467 216.983,29.367 221.573,34.678C227.731,29.003 233.526,26.467 242.584,26.467C256.708,26.467 267.813,37.456 267.813,54.359Z" style="fill:white;fill-rule:nonzero;"/>
        <path d="M322.763,57.254C322.763,48.685 316.483,41.2 307.791,41.2C302.841,41.2 297.89,42.889 294.148,47.962L294.148,66.43C297.89,71.382 302.841,73.072 307.791,73.072C316.483,73.072 322.763,65.707 322.763,57.254ZM339.303,57.254C339.303,74.038 326.504,87.317 310.568,87.317C304.05,87.317 298.618,85.626 294.148,82.732L294.148,104.465L277.365,114L277.365,28.281L294.148,28.281L294.148,31.66C298.618,28.764 304.05,27.074 310.568,27.074C326.504,27.074 339.303,40.234 339.303,57.254Z" style="fill:white;fill-rule:nonzero;"/>
    </g>
</svg>
