<?xml version="1.0" standalone="no"?>
<!DOCTYPE svg PUBLIC "-//W3C//DTD SVG 1.1//EN" "http://www.w3.org/Graphics/SVG/1.1/DTD/svg11.dtd">
<svg width="100%" height="100%" viewBox="0 0 816 180" version="1.1" xmlns="http://www.w3.org/2000/svg" xmlns:xlink="http://www.w3.org/1999/xlink" xml:space="preserve" style="fill-rule:evenodd;clip-rule:evenodd;">
    <g id="line-arrows" transform="matrix(0.998164,8.61147e-18,8.61147e-18,0.963005,-5.50935e-07,160)">
        <path d="M809.793,0L809.793,12.461L817.501,6.231L809.793,0Z" style="fill:rgb(35,31,32);fill-rule:nonzero;"/>
        <g transform="matrix(18.6615,0,0,18.6615,-123.081,-110.043)">
            <path d="M50.154,6.231L6.969,6.231" style="fill:none;stroke-width:0.03px;stroke:rgb(35,31,32);"/>
        </g>
        <path d="M7.707,0L0,6.231L7.707,12.461L7.707,0Z" style="fill:rgb(35,31,32);fill-rule:nonzero;"/>
    </g>
    <g id="hexagon" transform="matrix(1,0,0,1,-10,-69.9999)">
        <g transform="matrix(0.997856,-2.3172e-18,-2.35285e-18,0.992198,0.0214357,0.546146)">
            <path d="M77.645,225.72L144.858,186.915L144.858,109.304L77.645,70.499L10.432,109.304L10.432,186.915C32.836,199.85 55.241,212.785 77.645,225.72Z" style="fill:rgb(244,244,244);fill-rule:nonzero;"/>
        </g>
        <g transform="matrix(0.997856,-2.3172e-18,-2.35285e-18,0.992198,0.0214357,0.546146)">
            <path d="M77.645,226.219L10,187.164L10,109.055L77.645,70L145.29,109.055L145.29,187.164C122.742,200.182 100.193,213.2 77.645,226.219ZM77.645,225.72L144.858,186.915L144.858,109.304L77.645,70.499L10.432,109.304L10.432,186.915C32.836,199.85 55.241,212.785 77.645,225.72Z" style="fill:rgb(78,78,78);fill-rule:nonzero;"/>
        </g>
    </g>
    <g id="blog icon" transform="matrix(1,0,0,1,-30,-69.9999)">
        <g id="hexagon1" transform="matrix(1,0,0,1,160,0)">
            <g transform="matrix(0.997856,-2.3172e-18,-2.35285e-18,0.992198,0.0214357,0.546146)">
                <path d="M77.645,225.72L144.858,186.915L144.858,109.304L77.645,70.499L10.432,109.304L10.432,186.915C32.836,199.85 55.241,212.785 77.645,225.72Z" style="fill:rgb(244,244,244);fill-rule:nonzero;"/>
            </g>
            <g transform="matrix(0.997856,-2.3172e-18,-2.35285e-18,0.992198,0.0214357,0.546146)">
                <path d="M77.645,226.219L10,187.164L10,109.055L77.645,70L145.29,109.055L145.29,187.164C122.742,200.182 100.193,213.2 77.645,226.219ZM77.645,225.72L144.858,186.915L144.858,109.304L77.645,70.499L10.432,109.304L10.432,186.915C32.836,199.85 55.241,212.785 77.645,225.72Z" style="fill:rgb(78,78,78);fill-rule:nonzero;"/>
            </g>
        </g>
        <g transform="matrix(1,0,0,1,160,0)">
            <path d="M76.947,193.682C78.221,193.676 79.552,193.455 80.619,192.714C80.769,192.609 80.913,192.494 81.049,192.37C81.229,192.204 81.39,192.021 81.535,191.824L81.563,191.783L71.779,191.783C71.851,191.855 71.924,191.924 71.999,191.992C72.242,192.208 72.5,192.405 72.775,192.58C73.523,193.054 74.366,193.363 75.234,193.527C75.639,193.604 76.049,193.648 76.46,193.67C76.622,193.677 76.784,193.681 76.947,193.682ZM76.947,194.495C76.321,194.492 75.697,194.443 75.083,194.326C73.921,194.106 72.799,193.649 71.856,192.929C71.389,192.573 70.962,192.155 70.628,191.671L70.599,191.627L70.189,190.97L82.816,190.97C82.74,191.184 82.663,191.436 82.567,191.656C82.467,191.883 82.34,192.097 82.195,192.298C82.04,192.514 81.865,192.715 81.673,192.899C81.518,193.048 81.352,193.187 81.178,193.314C80.467,193.833 79.63,194.154 78.771,194.325C78.341,194.411 77.906,194.459 77.469,194.482C77.295,194.49 77.121,194.494 76.947,194.495ZM66.487,188.956C73.237,188.956 79.992,189.209 86.738,188.954C86.788,188.951 86.838,188.945 86.887,188.937C87.051,188.906 87.205,188.846 87.343,188.753C87.47,188.668 87.581,188.559 87.667,188.433C87.742,188.322 87.799,188.198 87.833,188.068C87.863,187.952 87.875,187.832 87.868,187.713C87.846,187.273 87.568,186.876 87.167,186.696C87.022,186.631 86.866,186.598 86.707,186.592C79.946,186.507 73.179,186.337 66.423,186.593C66.265,186.603 66.111,186.64 65.967,186.708C65.571,186.898 65.304,187.303 65.293,187.743C65.29,187.862 65.305,187.982 65.337,188.097C65.374,188.225 65.434,188.347 65.512,188.456C65.601,188.58 65.713,188.687 65.842,188.769C65.982,188.859 66.139,188.915 66.302,188.942C66.364,188.951 66.425,188.955 66.487,188.956ZM66.482,189.769C66.215,189.765 65.952,189.716 65.705,189.612C65.136,189.373 64.698,188.871 64.543,188.273C64.492,188.077 64.472,187.873 64.482,187.671C64.493,187.455 64.539,187.242 64.619,187.041C64.708,186.816 64.839,186.609 65.002,186.431C65.175,186.241 65.385,186.086 65.617,185.975C65.873,185.852 66.15,185.79 66.433,185.779C73.197,185.694 79.963,185.694 86.727,185.779C87.011,185.79 87.288,185.852 87.544,185.975C87.776,186.086 87.986,186.241 88.16,186.431C88.323,186.609 88.454,186.816 88.543,187.041C88.623,187.241 88.669,187.455 88.68,187.671C88.691,187.873 88.67,188.077 88.619,188.273C88.468,188.855 88.048,189.347 87.5,189.593C87.256,189.702 86.995,189.758 86.727,189.768C79.979,189.853 73.23,189.769 66.482,189.769ZM65.89,183.997C73.038,183.997 80.192,184.263 87.335,183.995C87.386,183.992 87.435,183.986 87.485,183.978C87.648,183.947 87.802,183.887 87.94,183.794C88.067,183.71 88.177,183.6 88.263,183.474C88.338,183.364 88.395,183.24 88.428,183.11C88.461,182.984 88.472,182.853 88.462,182.724C88.429,182.296 88.155,181.913 87.764,181.738C87.619,181.673 87.464,181.64 87.305,181.634C80.145,181.544 72.98,181.368 65.825,181.635C65.657,181.646 65.494,181.687 65.343,181.763C65.207,181.832 65.085,181.928 64.985,182.043C64.891,182.15 64.817,182.275 64.768,182.409C64.727,182.52 64.703,182.636 64.697,182.754C64.675,183.196 64.909,183.62 65.293,183.84C65.42,183.913 65.559,183.959 65.704,183.983C65.766,183.992 65.827,183.996 65.89,183.997ZM65.884,184.81C65.617,184.806 65.354,184.757 65.107,184.653C64.538,184.414 64.1,183.912 63.946,183.313C63.895,183.118 63.875,182.914 63.885,182.712C63.896,182.497 63.942,182.283 64.022,182.083C64.111,181.858 64.241,181.651 64.404,181.473C64.577,181.283 64.787,181.128 65.018,181.017C65.275,180.894 65.552,180.832 65.836,180.821C72.998,180.732 80.162,180.731 87.325,180.821C87.608,180.832 87.885,180.894 88.142,181.017C88.373,181.128 88.583,181.283 88.756,181.473C88.919,181.651 89.05,181.858 89.139,182.082C89.219,182.283 89.265,182.497 89.276,182.712C89.286,182.914 89.266,183.118 89.215,183.314C89.065,183.896 88.645,184.388 88.097,184.634C87.853,184.744 87.592,184.799 87.325,184.809C80.179,184.902 73.031,184.81 65.884,184.81ZM64.693,179.039C72.64,179.039 80.592,179.338 88.532,179.037C88.583,179.034 88.632,179.028 88.682,179.02C88.826,178.993 88.963,178.943 89.089,178.867C89.468,178.638 89.692,178.208 89.658,177.765C89.649,177.648 89.623,177.533 89.58,177.424C89.527,177.291 89.45,177.168 89.353,177.063C89.25,176.95 89.125,176.857 88.988,176.791C88.835,176.718 88.67,176.681 88.502,176.675C80.545,176.575 72.581,176.378 64.629,176.676C64.461,176.687 64.298,176.728 64.148,176.804C64.012,176.873 63.89,176.969 63.79,177.084C63.696,177.192 63.622,177.316 63.572,177.451C63.532,177.561 63.508,177.678 63.502,177.796C63.48,178.238 63.714,178.662 64.098,178.882C64.225,178.955 64.364,179.001 64.509,179.025C64.57,179.034 64.631,179.038 64.693,179.039ZM64.688,179.852C64.421,179.848 64.158,179.799 63.911,179.695C63.343,179.455 62.905,178.953 62.751,178.355C62.7,178.159 62.68,177.956 62.69,177.754C62.701,177.539 62.747,177.325 62.827,177.124C62.916,176.9 63.046,176.692 63.209,176.514C63.382,176.325 63.591,176.169 63.823,176.058C64.079,175.935 64.356,175.873 64.639,175.862C72.6,175.762 80.562,175.762 88.522,175.862C88.806,175.873 89.082,175.935 89.339,176.058C89.57,176.169 89.78,176.325 89.953,176.514C90.116,176.692 90.246,176.9 90.335,177.124C90.415,177.325 90.461,177.538 90.472,177.754C90.483,177.956 90.462,178.159 90.412,178.355C90.261,178.937 89.842,179.429 89.295,179.675C89.051,179.785 88.789,179.841 88.522,179.851C80.578,179.951 72.633,179.852 64.688,179.852ZM64.097,174.081C72.442,174.081 80.793,174.396 89.132,174.079C89.182,174.076 89.232,174.071 89.281,174.062C89.444,174.031 89.598,173.971 89.736,173.879C89.863,173.794 89.973,173.684 90.058,173.558C90.134,173.448 90.19,173.324 90.224,173.194C90.254,173.078 90.266,172.957 90.26,172.838C90.238,172.398 89.96,172 89.56,171.82C89.415,171.755 89.26,171.722 89.101,171.716C80.746,171.611 72.383,171.402 64.032,171.717C63.874,171.727 63.72,171.764 63.576,171.832C63.19,172.018 62.926,172.408 62.905,172.838C62.898,172.967 62.912,173.098 62.948,173.222C62.985,173.351 63.044,173.473 63.122,173.582C63.21,173.706 63.322,173.813 63.451,173.894C63.591,173.984 63.747,174.04 63.911,174.067C63.973,174.076 64.034,174.08 64.097,174.081ZM64.092,174.894C63.808,174.89 63.529,174.834 63.269,174.718C63.035,174.613 62.821,174.462 62.644,174.276C62.477,174.102 62.342,173.898 62.248,173.676C62.163,173.478 62.112,173.267 62.096,173.052C62.08,172.85 62.095,172.645 62.141,172.448C62.281,171.846 62.706,171.332 63.269,171.079C63.514,170.969 63.775,170.913 64.043,170.903C72.402,170.799 80.763,170.798 89.122,170.903C89.389,170.913 89.65,170.969 89.894,171.079C90.441,171.325 90.86,171.818 91.011,172.399C91.062,172.595 91.082,172.799 91.072,173.001C91.061,173.217 91.015,173.431 90.935,173.632C90.846,173.856 90.715,174.063 90.552,174.242C90.379,174.431 90.169,174.587 89.938,174.697C89.681,174.82 89.405,174.882 89.122,174.893C80.779,174.998 72.435,174.894 64.092,174.894ZM65.422,169.012L70.005,169.012C69.959,168.744 69.907,168.478 69.855,168.211C69.506,166.448 69.128,164.691 68.75,162.935C68.306,160.87 67.856,158.806 67.402,156.743C66.156,151.076 64.895,145.412 63.626,139.749L89.527,139.749L82.539,169.012L88.372,169.012L106.592,137.641L88.372,106.269L65.422,106.269L47.2,137.641C53.274,148.098 59.348,158.555 65.422,169.012ZM70.829,169.012L81.703,169.012L88.497,140.562L64.642,140.562C65.256,143.304 65.867,146.046 66.477,148.788C67.335,152.659 68.192,156.53 69.034,160.404C69.358,161.894 69.681,163.385 69.997,164.876C70.258,166.108 70.519,167.339 70.753,168.576C70.779,168.722 70.807,168.867 70.829,169.012ZM64.954,169.825L46.26,137.641L64.954,105.456L88.84,105.456L107.532,137.641L88.84,169.825C80.878,169.825 72.916,169.825 64.954,169.825Z" style="fill:rgb(217,39,46);fill-rule:nonzero;"/>
        </g>
    </g>
    <g id="support icon" transform="matrix(1,0,0,1,0,-69.9999)">
        <g id="hexagon2" transform="matrix(1,0,0,1,270,0)">
            <g transform="matrix(0.997856,-2.3172e-18,-2.35285e-18,0.992198,0.0214357,0.546146)">
                <path d="M77.645,225.72L144.858,186.915L144.858,109.304L77.645,70.499L10.432,109.304L10.432,186.915C32.836,199.85 55.241,212.785 77.645,225.72Z" style="fill:rgb(244,244,244);fill-rule:nonzero;"/>
            </g>
            <g transform="matrix(0.997856,-2.3172e-18,-2.35285e-18,0.992198,0.0214357,0.546146)">
                <path d="M77.645,226.219L10,187.164L10,109.055L77.645,70L145.29,109.055L145.29,187.164C122.742,200.182 100.193,213.2 77.645,226.219ZM77.645,225.72L144.858,186.915L144.858,109.304L77.645,70.499L10.432,109.304L10.432,186.915C32.836,199.85 55.241,212.785 77.645,225.72Z" style="fill:rgb(78,78,78);fill-rule:nonzero;"/>
            </g>
        </g>
        <path d="M347.098,175.789C345.704,175.784 344.311,175.689 342.931,175.488C340.32,175.108 337.764,174.365 335.357,173.283C331.967,171.759 328.885,169.568 326.329,166.87C323.891,164.297 321.939,161.271 320.612,157.984C319.42,155.031 318.739,151.879 318.597,148.699C318.461,145.652 318.813,142.586 319.651,139.653C320.316,137.324 321.285,135.083 322.522,133.001C324.298,130.014 326.625,127.361 329.35,125.205C331.738,123.316 334.427,121.812 337.289,120.77C340.31,119.67 343.514,119.092 346.73,119.051C350.015,119.01 353.304,119.528 356.412,120.596C359.457,121.641 362.319,123.208 364.844,125.205C367.12,127.006 369.121,129.155 370.752,131.556C372.303,133.839 373.518,136.348 374.342,138.983C375.249,141.885 375.678,144.93 375.619,147.97C375.558,151.165 374.956,154.345 373.833,157.338C372.606,160.607 370.766,163.638 368.442,166.242C365.97,169.012 362.959,171.292 359.621,172.916C357.257,174.067 354.735,174.886 352.147,175.346C350.782,175.588 349.402,175.726 348.017,175.774C347.711,175.783 347.405,175.788 347.098,175.789ZM347.098,174.867C348.448,174.863 349.795,174.77 351.132,174.576C353.658,174.208 356.131,173.489 358.459,172.442C361.739,170.967 364.722,168.847 367.195,166.236C369.554,163.747 371.442,160.819 372.726,157.639C373.879,154.783 374.538,151.734 374.675,148.657C374.807,145.71 374.466,142.743 373.656,139.906C373.028,137.706 372.12,135.588 370.963,133.615C369.29,130.762 367.099,128.218 364.53,126.135C362.156,124.21 359.463,122.683 356.59,121.637C353.666,120.572 350.566,120.013 347.455,119.973C344.274,119.933 341.091,120.435 338.082,121.468C335.291,122.426 332.66,123.835 330.314,125.624C327.64,127.662 325.343,130.188 323.573,133.047C322.341,135.036 321.366,137.182 320.681,139.419C319.82,142.235 319.425,145.186 319.5,148.129C319.578,151.216 320.18,154.286 321.283,157.171C322.489,160.325 324.286,163.246 326.55,165.751C328.958,168.418 331.886,170.607 335.127,172.16C337.423,173.26 339.871,174.038 342.38,174.468C343.704,174.694 345.042,174.82 346.385,174.858C346.623,174.863 346.86,174.866 347.098,174.867ZM347.098,158.065C346.597,158.062 346.098,158.031 345.602,157.962C344.599,157.822 343.616,157.54 342.693,157.125C341.401,156.545 340.228,155.706 339.261,154.672C338.351,153.701 337.625,152.561 337.135,151.324C336.693,150.212 336.445,149.026 336.399,147.831C336.355,146.666 336.5,145.495 336.835,144.378C337.452,142.315 338.708,140.467 340.388,139.122C341.297,138.395 342.324,137.817 343.418,137.419C344.551,137.006 345.754,136.789 346.96,136.774C348.17,136.758 349.382,136.946 350.53,137.332C351.634,137.704 352.676,138.258 353.603,138.964C355.348,140.295 356.664,142.158 357.319,144.253C357.653,145.32 357.814,146.439 357.8,147.557C357.785,148.758 357.566,149.954 357.151,151.081C356.691,152.331 355.992,153.49 355.105,154.483C354.163,155.539 353.013,156.404 351.737,157.016C350.827,157.452 349.855,157.758 348.859,157.922C348.368,158.003 347.872,158.046 347.374,158.062C347.236,158.064 347.236,158.064 347.098,158.065ZM347.098,157.143C347.556,157.14 348.013,157.112 348.467,157.049C349.383,156.921 350.28,156.663 351.123,156.284C352.304,155.753 353.375,154.987 354.259,154.042C355.09,153.155 355.753,152.114 356.201,150.984C356.603,149.969 356.83,148.887 356.872,147.796C356.912,146.732 356.78,145.662 356.474,144.642C356.237,143.848 355.896,143.085 355.464,142.378C354.873,141.411 354.113,140.55 353.229,139.842C352.399,139.177 351.461,138.649 350.461,138.285C349.425,137.908 348.327,137.709 347.225,137.696C346.077,137.681 344.929,137.865 343.846,138.245C341.803,138.96 340.027,140.361 338.854,142.179C338.384,142.908 338.012,143.7 337.753,144.528C337.448,145.503 337.301,146.524 337.314,147.545C337.328,148.641 337.528,149.733 337.907,150.762C338.327,151.904 338.966,152.962 339.776,153.87C340.637,154.834 341.689,155.625 342.855,156.184C343.687,156.583 344.575,156.862 345.486,157.012C345.936,157.086 346.389,157.126 346.845,157.14C346.972,157.142 346.972,157.142 347.098,157.143ZM347.144,152.559C346.935,152.558 346.728,152.55 346.52,152.527C345.978,152.467 345.446,152.322 344.949,152.098C343.836,151.597 342.918,150.702 342.392,149.6C342.211,149.221 342.077,148.82 341.993,148.408C341.886,147.879 341.862,147.334 341.922,146.798C341.983,146.258 342.129,145.728 342.355,145.233C342.615,144.662 342.981,144.141 343.428,143.699C343.877,143.256 344.405,142.894 344.983,142.639C345.596,142.367 346.262,142.217 346.933,142.195C347.643,142.173 348.357,142.295 349.019,142.555C350.194,143.017 351.18,143.911 351.752,145.037C351.924,145.375 352.058,145.732 352.151,146.099C352.274,146.583 352.327,147.084 352.307,147.582C352.285,148.123 352.178,148.66 351.99,149.168C351.775,149.751 351.453,150.293 351.045,150.762C350.628,151.241 350.124,151.645 349.563,151.944C349.079,152.203 348.555,152.384 348.014,152.479C347.808,152.515 347.602,152.537 347.393,152.551C347.269,152.556 347.269,152.556 347.144,152.559ZM347.136,151.637C347.308,151.633 347.479,151.624 347.65,151.602C348.096,151.545 348.534,151.418 348.941,151.226C349.412,151.003 349.84,150.693 350.202,150.318C350.558,149.948 350.847,149.513 351.049,149.041C351.224,148.631 351.333,148.193 351.372,147.749C351.411,147.307 351.381,146.859 351.282,146.427C351.205,146.09 351.087,145.763 350.93,145.455C350.475,144.561 349.702,143.842 348.778,143.453C348.269,143.238 347.72,143.124 347.168,143.115C346.617,143.107 346.064,143.204 345.549,143.402C344.612,143.763 343.817,144.457 343.334,145.336C343.168,145.639 343.039,145.962 342.951,146.297C342.838,146.726 342.794,147.172 342.818,147.615C342.843,148.06 342.938,148.501 343.1,148.916C343.287,149.395 343.561,149.838 343.906,150.22C344.255,150.607 344.674,150.929 345.139,151.166C345.54,151.371 345.973,151.512 346.418,151.583C346.588,151.61 346.758,151.625 346.93,151.633C347.033,151.636 347.033,151.636 347.136,151.637ZM352.318,181.751C353.407,181.481 354.497,181.214 355.586,180.942C356.673,180.671 357.759,180.395 358.846,180.121L358.525,176.543C358.782,176.44 359.039,176.336 359.295,176.23C359.52,176.135 359.52,176.136 359.744,176.039C360.192,175.841 360.636,175.637 361.076,175.421C361.961,174.984 362.825,174.506 363.665,173.987C364.16,173.682 364.647,173.363 365.124,173.03C365.424,172.822 365.718,172.607 366.013,172.392L368.905,174.552C369.713,173.778 370.523,173.005 371.329,172.228C372.134,171.452 372.935,170.673 373.738,169.895L371.658,166.953C371.832,166.731 372.006,166.51 372.179,166.286C372.33,166.087 372.33,166.087 372.479,165.887C372.773,165.486 373.061,165.08 373.337,164.667C373.884,163.849 374.392,163.004 374.859,162.138C375.128,161.637 375.384,161.129 375.626,160.614C375.777,160.29 375.921,159.964 376.066,159.638L379.651,160.07C379.96,158.998 380.271,157.927 380.579,156.854C380.886,155.782 381.189,154.709 381.495,153.637L378.213,152.123C378.251,151.847 378.29,151.572 378.326,151.295C378.355,151.051 378.355,151.052 378.383,150.807C378.435,150.318 378.48,149.828 378.511,149.338C378.572,148.357 378.588,147.373 378.557,146.391C378.539,145.817 378.505,145.244 378.456,144.673C378.425,144.314 378.385,143.955 378.347,143.597L381.674,142.186C381.403,141.105 381.134,140.023 380.861,138.942C380.588,137.861 380.311,136.78 380.035,135.699L376.437,136.019C376.333,135.764 376.229,135.508 376.123,135.254C376.027,135.03 376.027,135.03 375.93,134.807C375.732,134.362 375.526,133.919 375.308,133.483C374.87,132.602 374.389,131.743 373.868,130.908C373.561,130.415 373.24,129.932 372.906,129.457C372.695,129.158 372.478,128.865 372.261,128.57L374.433,125.694C373.655,124.892 372.877,124.089 372.097,123.289C371.316,122.488 370.532,121.689 369.749,120.889L366.791,122.958C366.569,122.786 366.347,122.614 366.123,122.443C365.923,122.293 365.923,122.293 365.722,122.145C365.318,121.852 364.91,121.566 364.495,121.292C363.671,120.748 362.821,120.243 361.95,119.779C361.446,119.511 360.934,119.256 360.416,119.016C360.091,118.865 359.763,118.721 359.435,118.577L359.869,115.013C358.79,114.705 357.713,114.396 356.634,114.09C355.555,113.784 354.475,113.483 353.396,113.179L351.872,116.442C351.596,116.405 351.32,116.367 351.043,116.331C350.798,116.301 350.798,116.301 350.552,116.274C350.06,116.222 349.568,116.178 349.074,116.147C348.087,116.086 347.098,116.07 346.11,116.101C345.533,116.118 344.957,116.152 344.381,116.201C344.021,116.232 343.662,116.271 343.303,116.308L341.885,113C340.795,113.27 339.705,113.537 338.617,113.809C337.529,114.081 336.442,114.357 335.355,114.631L335.676,118.208C335.419,118.312 335.162,118.415 334.906,118.521C334.681,118.616 334.682,118.616 334.457,118.713C334.009,118.91 333.564,119.115 333.125,119.331C332.24,119.768 331.375,120.246 330.535,120.764C330.04,121.07 329.553,121.389 329.076,121.721C328.777,121.929 328.483,122.145 328.188,122.359L325.295,120.2C324.487,120.974 323.677,121.747 322.871,122.524C322.067,123.299 321.266,124.078 320.463,124.855L322.542,127.798C322.368,128.02 322.194,128.242 322.022,128.465C321.871,128.664 321.871,128.664 321.721,128.865C321.427,129.266 321.14,129.671 320.863,130.085C320.317,130.903 319.809,131.747 319.342,132.614C319.073,133.115 318.817,133.623 318.575,134.138C318.423,134.461 318.279,134.787 318.134,135.113L314.55,134.682C314.24,135.754 313.929,136.825 313.622,137.897C313.314,138.969 313.011,140.042 312.706,141.114L315.988,142.628C315.95,142.904 315.912,143.18 315.876,143.456C315.846,143.7 315.846,143.7 315.818,143.945C315.766,144.434 315.722,144.923 315.691,145.414C315.629,146.395 315.614,147.379 315.644,148.362C315.662,148.935 315.696,149.508 315.746,150.079C315.777,150.439 315.816,150.797 315.854,151.156L312.527,152.565C312.798,153.647 313.066,154.728 313.339,155.809C313.612,156.891 313.89,157.971 314.166,159.052L317.763,158.732C317.867,158.988 317.972,159.243 318.078,159.498C318.174,159.722 318.173,159.721 318.271,159.944C318.469,160.39 318.675,160.832 318.892,161.269C319.331,162.15 319.812,163.009 320.333,163.844C320.64,164.337 320.961,164.82 321.295,165.295C321.506,165.594 321.723,165.887 321.94,166.182L319.768,169.057C320.546,169.859 321.323,170.662 322.103,171.462C322.884,172.264 323.668,173.062 324.451,173.861L327.411,171.793C327.633,171.965 327.855,172.138 328.078,172.308C328.279,172.459 328.278,172.458 328.48,172.607C328.883,172.9 329.291,173.186 329.707,173.46C330.53,174.004 331.38,174.509 332.251,174.973C332.755,175.241 333.266,175.496 333.784,175.736C334.109,175.887 334.438,176.03 334.766,176.175L334.331,179.739C335.41,180.047 336.488,180.357 337.567,180.662C338.646,180.968 339.726,181.269 340.806,181.573L342.328,178.31C342.605,178.348 342.881,178.386 343.157,178.421C343.403,178.451 343.402,178.451 343.649,178.478C344.141,178.53 344.633,178.574 345.127,178.605C346.114,178.666 347.104,178.681 348.092,178.651C348.669,178.633 349.245,178.6 349.82,178.55C350.18,178.52 350.539,178.481 350.899,178.443C351.372,179.546 351.845,180.648 352.318,181.751ZM351.779,182.834L350.319,179.43C350.094,179.452 349.87,179.471 349.645,179.49C348.545,179.571 347.443,179.605 346.34,179.579C345.238,179.553 344.138,179.468 343.043,179.336L342.877,179.315L341.31,182.672L337.315,181.55L333.321,180.409L333.768,176.742C333.567,176.652 333.368,176.559 333.168,176.466C332.941,176.357 332.941,176.357 332.715,176.247C331.96,175.871 331.218,175.473 330.494,175.042C329.416,174.401 328.379,173.697 327.383,172.938L324.339,175.064C323.374,174.078 322.406,173.094 321.442,172.106C320.478,171.117 319.518,170.124 318.556,169.132L320.791,166.174C320.657,165.989 320.525,165.802 320.394,165.615C320.249,165.403 320.249,165.404 320.106,165.191C319.543,164.342 319.015,163.473 318.532,162.576C318.054,161.69 317.624,160.782 317.229,159.857L317.168,159.711L313.466,160.04L312.445,156.035L311.441,152.024L314.866,150.573C314.844,150.351 314.825,150.129 314.806,149.907C314.787,149.654 314.787,149.655 314.771,149.402C314.711,148.391 314.691,147.379 314.723,146.367C314.755,145.355 314.838,144.346 314.961,143.341L314.982,143.179L311.603,141.621L312.735,137.643L313.881,133.674L317.57,134.117C317.661,133.917 317.754,133.718 317.848,133.52C317.957,133.294 317.957,133.294 318.068,133.069C318.522,132.167 319.011,131.285 319.545,130.427C320.086,129.559 320.671,128.72 321.289,127.905L321.394,127.77L319.254,124.742L322.232,121.86L325.221,118.994L328.196,121.214C328.383,121.081 328.572,120.949 328.761,120.818C328.974,120.674 328.973,120.674 329.188,120.531C330.041,119.971 330.916,119.446 331.817,118.966C332.708,118.491 333.621,118.063 334.551,117.67L334.697,117.61L334.366,113.93L338.393,112.914L342.423,111.917L343.883,115.321C344.107,115.299 344.332,115.28 344.557,115.262C344.811,115.243 344.81,115.243 345.065,115.226C346.081,115.167 347.098,115.148 348.115,115.179C349.133,115.211 350.147,115.294 351.157,115.416L351.324,115.438L352.891,112.079L356.885,113.203L360.879,114.342L360.433,118.01C360.633,118.1 360.833,118.193 361.032,118.286C361.26,118.395 361.259,118.395 361.485,118.505C362.24,118.881 362.983,119.28 363.708,119.71C364.785,120.35 365.822,121.054 366.818,121.814L369.861,119.686C370.826,120.672 371.793,121.657 372.757,122.645C373.722,123.635 374.683,124.628 375.646,125.619L373.411,128.578C373.544,128.763 373.676,128.95 373.807,129.137C373.952,129.349 373.952,129.348 374.095,129.561C374.658,130.41 375.186,131.279 375.669,132.176C376.146,133.061 376.577,133.97 376.972,134.895L377.033,135.04L380.735,134.711L381.755,138.716L382.76,142.727L379.335,144.179C379.357,144.401 379.377,144.623 379.395,144.846C379.414,145.098 379.414,145.098 379.431,145.351C379.49,146.361 379.51,147.373 379.478,148.385C379.447,149.397 379.363,150.406 379.24,151.411L379.219,151.572L382.597,153.13L381.465,157.108L380.319,161.079L376.631,160.635C376.54,160.834 376.447,161.033 376.353,161.231C376.244,161.458 376.244,161.457 376.133,161.682C375.679,162.584 375.19,163.467 374.656,164.324C374.115,165.193 373.529,166.031 372.911,166.846L372.807,166.981L374.947,170.008L371.969,172.892L368.979,175.759L366.005,173.537C365.817,173.671 365.629,173.802 365.439,173.933C365.227,174.078 365.227,174.077 365.013,174.22C364.159,174.78 363.285,175.306 362.384,175.786C361.493,176.26 360.58,176.689 359.65,177.081L359.504,177.141L359.834,180.823L355.809,181.837C354.466,182.169 353.122,182.502 351.779,182.834Z" style="fill:rgb(217,39,46);fill-rule:nonzero;"/>
    </g>
    <g id="new icon" transform="matrix(1,0,0,1,280,-69.9998)">
        <g id="hexagon3" transform="matrix(1,0,0,1,130,0)">
            <g transform="matrix(0.997856,-2.3172e-18,-2.35285e-18,0.992198,0.0214357,0.546146)">
                <path d="M77.645,225.72L144.858,186.915L144.858,109.304L77.645,70.499L10.432,109.304L10.432,186.915C32.836,199.85 55.241,212.785 77.645,225.72Z" style="fill:rgb(244,244,244);fill-rule:nonzero;"/>
            </g>
            <g transform="matrix(0.997856,-2.3172e-18,-2.35285e-18,0.992198,0.0214357,0.546146)">
                <path d="M77.645,226.219L10,187.164L10,109.055L77.645,70L145.29,109.055L145.29,187.164C122.742,200.182 100.193,213.2 77.645,226.219ZM77.645,225.72L144.858,186.915L144.858,109.304L77.645,70.499L10.432,109.304L10.432,186.915C32.836,199.85 55.241,212.785 77.645,225.72Z" style="fill:rgb(78,78,78);fill-rule:nonzero;"/>
            </g>
        </g>
        <g transform="matrix(1,0,0,1,-280,0.2892)">
            <path d="M481.864,191.872C474.36,187.626 466.855,183.38 459.351,179.134L451.839,174.885C451.692,174.613 451.546,174.34 451.411,174.061C451.168,173.557 450.954,173.04 450.767,172.512C450.256,171.071 449.952,169.561 449.822,168.038C449.697,166.577 449.731,165.101 449.914,163.646C450.021,162.797 450.179,161.955 450.396,161.127C450.606,160.332 450.871,159.551 451.22,158.805L451.245,158.751C451.176,158.616 451.109,158.479 451.043,158.342C450.972,158.19 450.904,158.038 450.837,157.884C450.168,156.302 449.773,154.617 449.605,152.91C449.47,151.539 449.479,150.153 449.632,148.785C449.826,147.047 450.25,145.316 451.009,143.736C450.933,143.528 450.933,143.528 450.86,143.319C450.695,142.836 450.543,142.349 450.412,141.855C450.111,140.716 449.912,139.548 449.835,138.372C449.694,136.208 449.972,134.017 450.695,131.971C451.059,130.94 451.532,129.946 452.129,129.03L452.134,129.023L451.836,128.854L495.586,103.848L525.09,120.592L482.061,146.055L453.096,129.57C453.022,129.681 452.951,129.793 452.881,129.905C451.367,132.406 450.748,135.397 450.937,138.3C451.049,140.015 451.441,141.697 452.029,143.31L481.986,159.762L525.375,135.037L525.921,135.996L481.996,161.027L451.877,144.486C451.205,145.992 450.842,147.627 450.692,149.265C450.555,150.765 450.597,152.285 450.826,153.774C451.067,155.337 451.52,156.87 452.244,158.279L452.279,158.346L481.985,174.486L525.375,149.76L525.921,150.719L481.998,175.75L452.111,159.511C452.054,159.641 452,159.772 451.948,159.904C451.408,161.302 451.104,162.788 450.954,164.276C450.804,165.766 450.816,167.275 451.009,168.76C451.184,170.097 451.507,171.418 452.006,172.672C452.198,173.154 452.417,173.623 452.659,174.081C458.362,177.307 464.066,180.533 469.769,183.76L481.862,190.602L525.629,165.626L526.176,166.585C511.405,175.014 496.635,183.443 481.864,191.872ZM482.05,144.779L522.889,120.612L495.587,105.118L454.065,128.852C463.393,134.161 472.722,139.47 482.05,144.779Z" style="fill:rgb(217,39,46);fill-rule:nonzero;"/>
        </g>
    </g>
    <g id="events icon" transform="matrix(1,0,0,1,0,-69.9999)">
        <g id="hexagon4" transform="matrix(1,0,0,1,550,0)">
            <g transform="matrix(0.997856,-2.3172e-18,-2.35285e-18,0.992198,0.0214357,0.546146)">
                <path d="M77.645,225.72L144.858,186.915L144.858,109.304L77.645,70.499L10.432,109.304L10.432,186.915C32.836,199.85 55.241,212.785 77.645,225.72Z" style="fill:rgb(244,244,244);fill-rule:nonzero;"/>
            </g>
            <g transform="matrix(0.997856,-2.3172e-18,-2.35285e-18,0.992198,0.0214357,0.546146)">
                <path d="M77.645,226.219L10,187.164L10,109.055L77.645,70L145.29,109.055L145.29,187.164C122.742,200.182 100.193,213.2 77.645,226.219ZM77.645,225.72L144.858,186.915L144.858,109.304L77.645,70.499L10.432,109.304L10.432,186.915C32.836,199.85 55.241,212.785 77.645,225.72Z" style="fill:rgb(78,78,78);fill-rule:nonzero;"/>
            </g>
        </g>
        <g transform="matrix(1.00105,1.39038e-18,1.39038e-18,0.995376,559.75,69.7121)">
            <path d="M99.36,59.812C109.551,77.129 103.775,99.43 86.459,109.622C69.142,119.814 46.841,114.038 36.649,96.721C26.457,79.405 32.233,57.104 49.549,46.912C66.866,36.719 89.168,42.495 99.36,59.812ZM84.604,68.497C94.797,85.813 95.628,104.226 86.459,109.622C77.291,115.018 61.596,105.354 51.405,88.037C41.213,70.72 40.381,52.308 49.549,46.912C58.717,41.516 74.412,51.18 84.604,68.497ZM76.99,43.029C76.765,50.619 69.756,59.852 60.406,65.356C51.053,70.86 39.58,72.505 32.835,69.017M59.018,113.505C59.244,105.915 66.252,96.681 75.603,91.178C84.955,85.674 96.429,84.028 103.174,87.516M36.649,96.721L99.36,59.812M49.549,46.912L86.459,109.622" style="fill:none;stroke-width:0.86px;stroke-miterlimit:10;stroke:rgb(217,39,46);"/>
        </g>
    </g>
</svg>
