<?xml version="1.0" standalone="no"?>
<!DOCTYPE svg PUBLIC "-//W3C//DTD SVG 1.1//EN" "http://www.w3.org/Graphics/SVG/1.1/DTD/svg11.dtd">
<svg width="100%" height="100%" viewBox="0 0 135 155" version="1.1" xmlns="http://www.w3.org/2000/svg" xmlns:xlink="http://www.w3.org/1999/xlink" xml:space="preserve" style="fill-rule:evenodd;clip-rule:evenodd;stroke-linejoin:round;stroke-miterlimit:1.41421;">
    <g transform="matrix(1,0,0,1,-10.0001,-69.9999)">
        <g id="hexagon">
            <g transform="matrix(0.997856,-2.3172e-18,-2.35285e-18,0.992198,0.0214357,0.546146)">
                <path d="M77.645,225.72L144.858,186.915L144.858,109.304L77.645,70.499L10.432,109.304L10.432,186.915C32.836,199.85 55.241,212.785 77.645,225.72Z" style="fill:rgb(244,244,244);fill-rule:nonzero;"/>
            </g>
            <g transform="matrix(0.997856,-2.3172e-18,-2.35285e-18,0.992198,0.0214357,0.546146)">
                <path d="M77.645,226.219L10,187.164L10,109.055L77.645,70L145.29,109.055L145.29,187.164C122.742,200.182 100.193,213.2 77.645,226.219ZM77.645,225.72L144.858,186.915L144.858,109.304L77.645,70.499L10.432,109.304L10.432,186.915C32.836,199.85 55.241,212.785 77.645,225.72Z" style="fill:rgb(78,78,78);fill-rule:nonzero;"/>
            </g>
        </g>
        <g id="blog icon">
            <path d="M76.947,193.682C78.221,193.676 79.552,193.455 80.619,192.714C80.769,192.609 80.913,192.494 81.049,192.37C81.229,192.204 81.39,192.021 81.535,191.824L81.563,191.783L71.779,191.783C71.851,191.855 71.924,191.924 71.999,191.992C72.242,192.208 72.5,192.405 72.775,192.58C73.523,193.054 74.366,193.363 75.234,193.527C75.639,193.604 76.049,193.648 76.46,193.67C76.622,193.677 76.784,193.681 76.947,193.682ZM76.947,194.495C76.321,194.492 75.697,194.443 75.083,194.326C73.921,194.106 72.799,193.649 71.856,192.929C71.389,192.573 70.962,192.155 70.628,191.671L70.599,191.627L70.189,190.97L82.816,190.97C82.74,191.184 82.663,191.436 82.567,191.656C82.467,191.883 82.34,192.097 82.195,192.298C82.04,192.514 81.865,192.715 81.673,192.899C81.518,193.048 81.352,193.187 81.178,193.314C80.467,193.833 79.63,194.154 78.771,194.325C78.341,194.411 77.906,194.459 77.469,194.482C77.295,194.49 77.121,194.494 76.947,194.495ZM66.487,188.956C73.237,188.956 79.992,189.209 86.738,188.954C86.788,188.951 86.838,188.945 86.887,188.937C87.051,188.906 87.205,188.846 87.343,188.753C87.47,188.668 87.581,188.559 87.667,188.433C87.742,188.322 87.799,188.198 87.833,188.068C87.863,187.952 87.875,187.832 87.868,187.713C87.846,187.273 87.568,186.876 87.167,186.696C87.022,186.631 86.866,186.598 86.707,186.592C79.946,186.507 73.179,186.337 66.423,186.593C66.265,186.603 66.111,186.64 65.967,186.708C65.571,186.898 65.304,187.303 65.293,187.743C65.29,187.862 65.305,187.982 65.337,188.097C65.374,188.225 65.434,188.347 65.512,188.456C65.601,188.58 65.713,188.687 65.842,188.769C65.982,188.859 66.139,188.915 66.302,188.942C66.364,188.951 66.425,188.955 66.487,188.956ZM66.482,189.769C66.215,189.765 65.952,189.716 65.705,189.612C65.136,189.373 64.698,188.871 64.543,188.273C64.492,188.077 64.472,187.873 64.482,187.671C64.493,187.455 64.539,187.242 64.619,187.041C64.708,186.816 64.839,186.609 65.002,186.431C65.175,186.241 65.385,186.086 65.617,185.975C65.873,185.852 66.15,185.79 66.433,185.779C73.197,185.694 79.963,185.694 86.727,185.779C87.011,185.79 87.288,185.852 87.544,185.975C87.776,186.086 87.986,186.241 88.16,186.431C88.323,186.609 88.454,186.816 88.543,187.041C88.623,187.241 88.669,187.455 88.68,187.671C88.691,187.873 88.67,188.077 88.619,188.273C88.468,188.855 88.048,189.347 87.5,189.593C87.256,189.702 86.995,189.758 86.727,189.768C79.979,189.853 73.23,189.769 66.482,189.769ZM65.89,183.997C73.038,183.997 80.192,184.263 87.335,183.995C87.386,183.992 87.435,183.986 87.485,183.978C87.648,183.947 87.802,183.887 87.94,183.794C88.067,183.71 88.177,183.6 88.263,183.474C88.338,183.364 88.395,183.24 88.428,183.11C88.461,182.984 88.472,182.853 88.462,182.724C88.429,182.296 88.155,181.913 87.764,181.738C87.619,181.673 87.464,181.64 87.305,181.634C80.145,181.544 72.98,181.368 65.825,181.635C65.657,181.646 65.494,181.687 65.343,181.763C65.207,181.832 65.085,181.928 64.985,182.043C64.891,182.15 64.817,182.275 64.768,182.409C64.727,182.52 64.703,182.636 64.697,182.754C64.675,183.196 64.909,183.62 65.293,183.84C65.42,183.913 65.559,183.959 65.704,183.983C65.766,183.992 65.827,183.996 65.89,183.997ZM65.884,184.81C65.617,184.806 65.354,184.757 65.107,184.653C64.538,184.414 64.1,183.912 63.946,183.313C63.895,183.118 63.875,182.914 63.885,182.712C63.896,182.497 63.942,182.283 64.022,182.083C64.111,181.858 64.241,181.651 64.404,181.473C64.577,181.283 64.787,181.128 65.018,181.017C65.275,180.894 65.552,180.832 65.836,180.821C72.998,180.732 80.162,180.731 87.325,180.821C87.608,180.832 87.885,180.894 88.142,181.017C88.373,181.128 88.583,181.283 88.756,181.473C88.919,181.651 89.05,181.858 89.139,182.082C89.219,182.283 89.265,182.497 89.276,182.712C89.286,182.914 89.266,183.118 89.215,183.314C89.065,183.896 88.645,184.388 88.097,184.634C87.853,184.744 87.592,184.799 87.325,184.809C80.179,184.902 73.031,184.81 65.884,184.81ZM64.693,179.039C72.64,179.039 80.592,179.338 88.532,179.037C88.583,179.034 88.632,179.028 88.682,179.02C88.826,178.993 88.963,178.943 89.089,178.867C89.468,178.638 89.692,178.208 89.658,177.765C89.649,177.648 89.623,177.533 89.58,177.424C89.527,177.291 89.45,177.168 89.353,177.063C89.25,176.95 89.125,176.857 88.988,176.791C88.835,176.718 88.67,176.681 88.502,176.675C80.545,176.575 72.581,176.378 64.629,176.676C64.461,176.687 64.298,176.728 64.148,176.804C64.012,176.873 63.89,176.969 63.79,177.084C63.696,177.192 63.622,177.316 63.572,177.451C63.532,177.561 63.508,177.678 63.502,177.796C63.48,178.238 63.714,178.662 64.098,178.882C64.225,178.955 64.364,179.001 64.509,179.025C64.57,179.034 64.631,179.038 64.693,179.039ZM64.688,179.852C64.421,179.848 64.158,179.799 63.911,179.695C63.343,179.455 62.905,178.953 62.751,178.355C62.7,178.159 62.68,177.956 62.69,177.754C62.701,177.539 62.747,177.325 62.827,177.124C62.916,176.9 63.046,176.692 63.209,176.514C63.382,176.325 63.591,176.169 63.823,176.058C64.079,175.935 64.356,175.873 64.639,175.862C72.6,175.762 80.562,175.762 88.522,175.862C88.806,175.873 89.082,175.935 89.339,176.058C89.57,176.169 89.78,176.325 89.953,176.514C90.116,176.692 90.246,176.9 90.335,177.124C90.415,177.325 90.461,177.538 90.472,177.754C90.483,177.956 90.462,178.159 90.412,178.355C90.261,178.937 89.842,179.429 89.295,179.675C89.051,179.785 88.789,179.841 88.522,179.851C80.578,179.951 72.633,179.852 64.688,179.852ZM64.097,174.081C72.442,174.081 80.793,174.396 89.132,174.079C89.182,174.076 89.232,174.071 89.281,174.062C89.444,174.031 89.598,173.971 89.736,173.879C89.863,173.794 89.973,173.684 90.058,173.558C90.134,173.448 90.19,173.324 90.224,173.194C90.254,173.078 90.266,172.957 90.26,172.838C90.238,172.398 89.96,172 89.56,171.82C89.415,171.755 89.26,171.722 89.101,171.716C80.746,171.611 72.383,171.402 64.032,171.717C63.874,171.727 63.72,171.764 63.576,171.832C63.19,172.018 62.926,172.408 62.905,172.838C62.898,172.967 62.912,173.098 62.948,173.222C62.985,173.351 63.044,173.473 63.122,173.582C63.21,173.706 63.322,173.813 63.451,173.894C63.591,173.984 63.747,174.04 63.911,174.067C63.973,174.076 64.034,174.08 64.097,174.081ZM64.092,174.894C63.808,174.89 63.529,174.834 63.269,174.718C63.035,174.613 62.821,174.462 62.644,174.276C62.477,174.102 62.342,173.898 62.248,173.676C62.163,173.478 62.112,173.267 62.096,173.052C62.08,172.85 62.095,172.645 62.141,172.448C62.281,171.846 62.706,171.332 63.269,171.079C63.514,170.969 63.775,170.913 64.043,170.903C72.402,170.799 80.763,170.798 89.122,170.903C89.389,170.913 89.65,170.969 89.894,171.079C90.441,171.325 90.86,171.818 91.011,172.399C91.062,172.595 91.082,172.799 91.072,173.001C91.061,173.217 91.015,173.431 90.935,173.632C90.846,173.856 90.715,174.063 90.552,174.242C90.379,174.431 90.169,174.587 89.938,174.697C89.681,174.82 89.405,174.882 89.122,174.893C80.779,174.998 72.435,174.894 64.092,174.894ZM65.422,169.012L70.005,169.012C69.959,168.744 69.907,168.478 69.855,168.211C69.506,166.448 69.128,164.691 68.75,162.935C68.306,160.87 67.856,158.806 67.402,156.743C66.156,151.076 64.895,145.412 63.626,139.749L89.527,139.749L82.539,169.012L88.372,169.012L106.592,137.641L88.372,106.269L65.422,106.269L47.2,137.641C53.274,148.098 59.348,158.555 65.422,169.012ZM70.829,169.012L81.703,169.012L88.497,140.562L64.642,140.562C65.256,143.304 65.867,146.046 66.477,148.788C67.335,152.659 68.192,156.53 69.034,160.404C69.358,161.894 69.681,163.385 69.997,164.876C70.258,166.108 70.519,167.339 70.753,168.576C70.779,168.722 70.807,168.867 70.829,169.012ZM64.954,169.825L46.26,137.641L64.954,105.456L88.84,105.456L107.532,137.641L88.84,169.825C80.878,169.825 72.916,169.825 64.954,169.825Z" style="fill:rgb(217,39,46);fill-rule:nonzero;"/>
        </g>
    </g>
</svg>
