<?xml version="1.0" standalone="no"?>
<!DOCTYPE svg PUBLIC "-//W3C//DTD SVG 1.1//EN" "http://www.w3.org/Graphics/SVG/1.1/DTD/svg11.dtd">
<svg width="100%" height="100%" viewBox="0 0 135 155" version="1.1" xmlns="http://www.w3.org/2000/svg" xmlns:xlink="http://www.w3.org/1999/xlink" xml:space="preserve" style="fill-rule:evenodd;clip-rule:evenodd;stroke-linejoin:round;stroke-miterlimit:1.41421;">
    <g transform="matrix(1,0,0,1,-10.0001,-69.9999)">
        <g id="hexagon">
            <g transform="matrix(0.997856,-2.3172e-18,-2.35285e-18,0.992198,0.0214357,0.546146)">
                <path d="M77.645,225.72L144.858,186.915L144.858,109.304L77.645,70.499L10.432,109.304L10.432,186.915C32.836,199.85 55.241,212.785 77.645,225.72Z" style="fill:rgb(244,244,244);fill-rule:nonzero;"/>
            </g>
            <g transform="matrix(0.997856,-2.3172e-18,-2.35285e-18,0.992198,0.0214357,0.546146)">
                <path d="M77.645,226.219L10,187.164L10,109.055L77.645,70L145.29,109.055L145.29,187.164C122.742,200.182 100.193,213.2 77.645,226.219ZM77.645,225.72L144.858,186.915L144.858,109.304L77.645,70.499L10.432,109.304L10.432,186.915C32.836,199.85 55.241,212.785 77.645,225.72Z" style="fill:rgb(78,78,78);fill-rule:nonzero;"/>
            </g>
        </g>
    </g>
</svg>
