<?xml version="1.0" standalone="no"?>
<!DOCTYPE svg PUBLIC "-//W3C//DTD SVG 1.1//EN" "http://www.w3.org/Graphics/SVG/1.1/DTD/svg11.dtd">
<svg width="100%" height="100%" viewBox="0 0 23 25" version="1.1" xmlns="http://www.w3.org/2000/svg" xmlns:xlink="http://www.w3.org/1999/xlink" xml:space="preserve" style="fill-rule:evenodd;clip-rule:evenodd;stroke-linejoin:round;stroke-miterlimit:1.41421;">
    <g transform="matrix(1.01212,4.49653e-18,4.49653e-18,0.993763,-3.037,-2.98029)">
        <g id="Layer1">
            <path d="M11.23,20.691C11.213,20.716 11.196,20.74 11.177,20.764C9.006,23.202 6.699,25.515 4.46,27.891C4.426,27.925 4.391,27.958 4.352,27.987C4.234,28.076 4.099,28.126 3.954,28.149C3.906,28.154 3.906,28.154 3.858,28.156C3.711,28.154 3.57,28.124 3.441,28.053C3.108,27.871 2.934,27.477 3.025,27.109C3.056,26.981 3.117,26.869 3.198,26.767C5.354,24.345 7.646,22.046 9.871,19.687C9.037,18.949 8.331,18.068 7.797,17.086C7.35,16.264 7.026,15.376 6.839,14.46C6.628,13.43 6.589,12.366 6.722,11.324C6.845,10.35 7.121,9.397 7.537,8.507C8.023,7.466 8.699,6.515 9.521,5.713C10.371,4.882 11.376,4.212 12.471,3.749C13.606,3.269 14.831,3.015 16.062,3C17.298,2.984 18.533,3.208 19.683,3.661C20.79,4.098 21.813,4.744 22.684,5.555C23.524,6.337 24.222,7.27 24.733,8.298C25.169,9.175 25.467,10.119 25.615,11.086C25.768,12.086 25.762,13.11 25.596,14.108C25.449,14.996 25.175,15.863 24.784,16.674C24.318,17.64 23.689,18.526 22.931,19.284C22.173,20.042 21.287,20.671 20.321,21.137C19.51,21.528 18.643,21.802 17.755,21.949C17.317,22.022 16.875,22.061 16.431,22.075C16.308,22.077 16.308,22.077 16.185,22.078C15.739,22.075 15.294,22.047 14.852,21.986C13.957,21.86 13.082,21.607 12.259,21.235C11.904,21.075 11.561,20.893 11.23,20.691ZM16.185,20.388C16.553,20.386 16.919,20.363 17.284,20.312C18.019,20.209 18.739,20.001 19.415,19.695C20.941,19.005 22.225,17.823 23.042,16.362C23.417,15.692 23.692,14.967 23.855,14.216C24.046,13.339 24.085,12.428 23.972,11.537C23.874,10.768 23.661,10.015 23.342,9.309C22.952,8.446 22.405,7.657 21.736,6.988C21.044,6.297 20.224,5.735 19.328,5.343C18.402,4.938 17.399,4.717 16.388,4.692C15.37,4.666 14.349,4.837 13.396,5.199C12.48,5.547 11.632,6.069 10.907,6.728C10.208,7.364 9.624,8.125 9.193,8.966C8.827,9.681 8.572,10.452 8.441,11.245C8.299,12.099 8.299,12.977 8.441,13.832C8.567,14.593 8.807,15.335 9.151,16.026C9.895,17.525 11.122,18.767 12.612,19.53C13.269,19.866 13.973,20.109 14.698,20.247C15.056,20.316 15.417,20.357 15.78,20.378C15.915,20.384 16.05,20.387 16.185,20.388Z" style="fill:white;"/>
        </g>
    </g>
</svg>
