<?xml version="1.0" standalone="no"?><!DOCTYPE svg PUBLIC "-//W3C//DTD SVG 1.1//EN" "http://www.w3.org/Graphics/SVG/1.1/DTD/svg11.dtd"><svg width="100%" height="100%" viewBox="0 0 56 56" version="1.1" xmlns="http://www.w3.org/2000/svg" xmlns:xlink="http://www.w3.org/1999/xlink" xml:space="preserve" style="fill-rule:evenodd;clip-rule:evenodd;stroke-miterlimit:10;"><g id="Layer1"><path d="M17.17,41.1c0.62,-3.6 2.99,-6.6 6.21,-8.09M32.62,33.01c1.18,0.55 2.25,1.3 3.16,2.21c1.57,1.57 2.66,3.6 3.05,5.88M45,28c0,9.389 -7.611,17 -17,17c-9.389,0 -17,-7.611 -17,-17c0,-9.389 7.611,-17 17,-17c9.389,0 17,7.611 17,17ZM35,27c0,4.418 -3.134,8 -7,8c-3.866,0 -7,-3.582 -7,-8c0,-4.418 3.134,-8 7,-8c3.866,0 7,3.582 7,8Z" style="fill:none;stroke-width:2px;stroke:#fff;"/></g></svg>