<?xml version="1.0" standalone="no"?>
<!DOCTYPE svg PUBLIC "-//W3C//DTD SVG 1.1//EN" "http://www.w3.org/Graphics/SVG/1.1/DTD/svg11.dtd">
<svg width="100%" height="100%" viewBox="0 0 36 36" version="1.1" xmlns="http://www.w3.org/2000/svg" xmlns:xlink="http://www.w3.org/1999/xlink" xml:space="preserve" style="fill-rule:evenodd;clip-rule:evenodd;stroke-linejoin:round;stroke-miterlimit:1.41421;">
    <g transform="matrix(1,0,0,1,-9.99972,-10)">
        <path d="M28,46C27.158,45.995 26.318,45.942 25.484,45.825C23.797,45.589 22.144,45.111 20.592,44.41C18.812,43.605 17.167,42.508 15.738,41.178C14.312,39.85 13.103,38.292 12.173,36.581C11.331,35.03 10.719,33.356 10.366,31.627C9.968,29.684 9.895,27.676 10.145,25.709C10.378,23.871 10.898,22.072 11.682,20.393C12.599,18.428 13.874,16.635 15.426,15.12C17.031,13.553 18.927,12.289 20.993,11.415C23.133,10.51 25.445,10.031 27.768,10.001C30.099,9.972 32.431,10.393 34.6,11.249C36.69,12.073 38.618,13.292 40.262,14.822C41.848,16.298 43.164,18.059 44.129,20C44.951,21.654 45.514,23.434 45.793,25.26C46.092,27.221 46.068,29.232 45.719,31.185C45.408,32.927 44.837,34.62 44.03,36.195C43.142,37.93 41.969,39.518 40.574,40.88C39.179,42.243 37.562,43.378 35.804,44.225C34.274,44.962 32.639,45.479 30.963,45.757C30.136,45.894 29.302,45.968 28.464,45.994C28.232,45.999 28.232,45.999 28,46ZM16.607,39.234C16.651,39.1 16.652,39.101 16.698,38.967C16.76,38.795 16.76,38.796 16.825,38.625C16.915,38.4 17.008,38.176 17.11,37.956C17.337,37.464 17.598,36.988 17.889,36.532C18.597,35.425 19.487,34.435 20.514,33.615C20.927,33.285 21.363,32.985 21.814,32.71C21.745,32.615 21.677,32.518 21.611,32.42C21.342,32.014 21.101,31.59 20.897,31.147C20.379,30.024 20.084,28.803 20.016,27.569C19.956,26.49 20.066,25.401 20.35,24.359C20.788,22.749 21.644,21.247 22.861,20.099C23.203,19.777 23.573,19.483 23.966,19.224C24.415,18.93 24.894,18.681 25.394,18.488C25.964,18.267 26.562,18.118 27.169,18.048C27.891,17.964 28.625,17.99 29.339,18.125C30.167,18.282 30.965,18.587 31.692,19.012C32.566,19.524 33.335,20.207 33.964,20.999C34.705,21.93 35.253,23.01 35.591,24.15C35.993,25.507 36.098,26.949 35.911,28.351C35.763,29.455 35.43,30.535 34.918,31.525C34.711,31.925 34.474,32.307 34.212,32.674L34.185,32.712C34.307,32.785 34.427,32.862 34.547,32.939C34.657,33.012 34.766,33.086 34.875,33.161C35.479,33.589 36.048,34.064 36.567,34.593C37.443,35.486 38.179,36.515 38.738,37.634C38.995,38.149 39.211,38.683 39.393,39.229L39.394,39.232C41.089,37.517 42.387,35.416 43.16,33.132C43.872,31.027 44.133,28.778 43.937,26.565C43.75,24.465 43.145,22.409 42.161,20.545C41.352,19.012 40.293,17.614 39.039,16.418C37.83,15.265 36.441,14.302 34.936,13.577C33.516,12.893 31.996,12.422 30.438,12.184C28.759,11.928 27.039,11.938 25.364,12.216C23.748,12.484 22.175,13.003 20.717,13.75C19.003,14.628 17.451,15.817 16.156,17.242C14.813,18.72 13.749,20.448 13.039,22.315C12.083,24.829 11.783,27.577 12.155,30.239C12.464,32.442 13.239,34.573 14.417,36.46C14.791,37.059 15.204,37.633 15.653,38.177C15.857,38.424 16.069,38.663 16.286,38.899C16.392,39.012 16.498,39.124 16.607,39.234ZM28,44C28.343,43.998 28.686,43.989 29.029,43.967C29.767,43.921 30.501,43.823 31.226,43.675C32.825,43.348 34.371,42.772 35.795,41.976C36.469,41.599 37.111,41.172 37.726,40.706L37.73,40.702C37.296,38.793 36.264,37.035 34.836,35.698C34.219,35.12 33.53,34.628 32.791,34.217L32.786,34.214C32.701,34.287 32.613,34.356 32.525,34.425C32.445,34.486 32.364,34.546 32.282,34.605C31.65,35.05 30.962,35.409 30.225,35.648C29.243,35.966 28.195,36.071 27.169,35.952C26.528,35.878 25.899,35.716 25.3,35.475C24.551,35.174 23.862,34.749 23.239,34.236L23.213,34.214C22.397,34.661 21.644,35.218 20.982,35.871C19.649,37.185 18.689,38.877 18.27,40.703C18.373,40.783 18.478,40.859 18.582,40.936C19.104,41.312 19.643,41.662 20.205,41.976C21.456,42.675 22.8,43.205 24.193,43.544C24.906,43.719 25.632,43.843 26.363,43.917C26.702,43.952 27.041,43.973 27.381,43.988C27.587,43.995 27.793,43.999 28,44ZM28,34C28.67,33.995 29.331,33.87 29.953,33.62C30.366,33.454 30.758,33.236 31.121,32.977C31.411,32.77 31.682,32.537 31.932,32.284C32.153,32.06 32.357,31.82 32.544,31.568C33.941,29.679 34.333,27.136 33.72,24.884C33.274,23.242 32.269,21.721 30.809,20.815C30.599,20.685 30.381,20.568 30.156,20.467C29.865,20.336 29.564,20.23 29.255,20.154C28.894,20.064 28.523,20.013 28.152,20.002C27.482,19.983 26.812,20.094 26.184,20.327C25.673,20.517 25.193,20.785 24.758,21.112C24.409,21.374 24.09,21.674 23.803,22.002C23.594,22.241 23.401,22.495 23.227,22.761C21.473,25.442 21.599,29.239 23.601,31.756C23.859,32.081 24.147,32.381 24.462,32.65C24.879,33.007 25.344,33.308 25.844,33.533C26.43,33.797 27.057,33.949 27.698,33.991C27.798,33.996 27.899,33.999 28,34Z" style="fill:white;fill-rule:nonzero;"/>
    </g>
</svg>
